<svg width="70" height="70" viewBox="0 0 70 70" fill="none" xmlns="http://www.w3.org/2000/svg">
<path d="M40.147 28.128C38.2679 28.0656 36.738 29.3333 35 29.3109C33.262 29.3333 31.7321 28.0656 29.853 28.128C26.0395 28.255 23.6206 33.3831 26.0583 37.6117C28.2796 41.4652 31.4076 45.1153 35 45.1153C38.5912 45.1153 41.7204 41.4652 43.9417 37.6117C46.3782 33.3831 43.9605 28.255 40.147 28.128ZM29.2744 32.9433C28.8993 33.7053 28.4184 35.0165 28.1902 32.794C28.1267 32.1755 28.4525 31.8121 28.897 31.8885C29.3415 31.965 29.5437 32.3965 29.2744 32.9433ZM30.2928 38.6689C30.0035 38.1185 30.1705 37.6599 30.6115 37.5647C31.0536 37.4694 31.4017 37.7963 31.3546 38.4043C31.2911 39.251 31.3335 40.6479 30.2928 38.6689ZM34.9459 32.8234C35.3974 32.8281 35.6644 33.2244 35.4856 33.8065C35.2352 34.6178 34.9682 35.989 34.3909 33.83C34.2298 33.2279 34.4932 32.8175 34.9459 32.8234ZM35.8514 41.3182C35.6009 42.1296 35.3339 43.5007 34.7566 41.3417C34.5955 40.7408 34.8601 40.3305 35.3116 40.3352C35.7643 40.341 36.0313 40.7361 35.8514 41.3182ZM40.0929 38.2161C39.0522 40.194 39.0945 38.7982 39.0299 37.9516C38.984 37.3436 39.3309 37.0179 39.773 37.112C40.2152 37.206 40.3822 37.6646 40.0929 38.2161ZM40.7032 33.0892C40.4116 32.5388 40.5774 32.0802 41.0195 31.9838C41.4605 31.8874 41.8097 32.2131 41.765 32.821C41.7027 33.6689 41.7498 35.0647 40.7032 33.0892Z" fill="#E51D2A"/>
<path d="M34.9247 24.5755C35.5033 24.5755 35.802 25.0176 35.7726 25.3834C35.7608 25.5315 35.6515 26.9579 35.6515 26.9579C35.6515 26.9579 36.4311 26.3747 36.9838 26.0301C37.4318 25.7502 37.8575 26.0395 38.0738 26.3523C38.2585 26.6192 38.3302 27.2778 37.8316 27.5223C37.5882 27.6423 35.7197 28.6795 34.9259 28.6795C34.1322 28.6795 32.2625 27.6411 32.0202 27.5223C31.5216 27.2778 31.5934 26.6181 31.778 26.3523C31.9944 26.0395 32.4189 25.7491 32.8681 26.0301C33.4196 26.3747 34.2004 26.9579 34.2004 26.9579C34.2004 26.9579 34.091 25.5315 34.0793 25.3834C34.0463 25.0176 34.3462 24.5755 34.9247 24.5755Z" fill="#E51D2A"/>
<path d="M31.8191 51.6651L30.9878 53.0868L32.012 53.3102L31.8462 51.671L31.8191 51.6651Z" fill="#E51D2A"/>
<path d="M43.4149 18.3067L43.3902 18.2949L42.239 19.4732L43.1785 19.9377L43.4149 18.3067Z" fill="#E51D2A"/>
<path d="M36.7897 51.631L35.9172 51.6874L35.9948 52.881L36.8673 52.8245C37.1754 52.8045 37.3542 52.4424 37.3389 52.1942C37.3224 51.9473 37.099 51.611 36.7897 51.631Z" fill="#E51D2A"/>
<path d="M35 10.9901C21.7403 10.9901 10.9901 21.7392 10.9901 35C10.9901 48.2608 21.7392 59.0098 35 59.0098C48.2608 59.0098 59.0098 48.2608 59.0098 35C59.0098 21.7392 48.2596 10.9901 35 10.9901ZM44.118 16.8556C44.4979 17.0437 44.686 17.4059 44.6484 17.7399L44.2639 21.8085C44.2321 22.1002 43.8993 22.3036 43.5383 22.2601C43.1738 22.2225 42.9021 21.9532 42.928 21.6592L43.0044 21.1571L41.377 20.3528L41.0242 20.7185C40.8055 20.9172 40.4268 20.8655 40.1752 20.5985C39.9212 20.3387 39.8812 19.9506 40.0929 19.7483L43.0926 16.972C43.3349 16.738 43.7382 16.6674 44.118 16.8556ZM35.9536 15.1576C36.0019 14.8589 36.3452 14.6696 36.7168 14.7295C37.0884 14.7895 37.3553 15.0776 37.3071 15.3763L37.0684 16.8579C37.2013 16.8779 37.3354 16.8967 37.4271 16.9097L39.1698 15.2975C39.3779 15.0999 39.7495 15.1599 40 15.4245C40.2422 15.695 40.2716 16.0607 40.0552 16.2641L38.5759 17.6317L39.5508 19.3944C39.6931 19.6554 39.5496 19.9929 39.2345 20.174C38.9146 20.3469 38.5418 20.2869 38.4066 20.0341L37.2566 17.9574C37.186 17.948 37.0484 17.9268 36.8979 17.9022L36.6592 19.3826C36.611 19.6813 36.2676 19.8706 35.896 19.8107C35.5244 19.7507 35.2575 19.4626 35.3057 19.1639L35.9536 15.1576ZM30.3751 15.1834C30.7455 15.1152 31.0936 15.2963 31.1489 15.5938L31.424 17.0755C31.5592 17.0496 31.6886 17.0249 31.7509 17.0132L32.8504 14.9083C32.9809 14.6519 33.3502 14.5825 33.6747 14.7483C33.9934 14.9212 34.1451 15.2552 34.0099 15.5197L33.0774 17.306L34.5896 18.6383C34.8107 18.837 34.7895 19.2027 34.5543 19.4791C34.3109 19.7495 33.9405 19.8189 33.7276 19.626L31.9461 18.0562C31.8532 18.0738 31.7356 18.095 31.618 18.1173L31.8909 19.5849C31.9461 19.8824 31.6862 20.1764 31.3158 20.2446C30.9454 20.314 30.5973 20.1317 30.5421 19.8342L29.8013 15.8431C29.746 15.5468 30.0059 15.2528 30.3751 15.1834ZM25.8561 16.845C26.2347 16.6557 26.6369 16.7251 26.8803 16.9567L29.8894 19.7213C30.1023 19.9224 30.0635 20.3104 29.8107 20.5715C29.5614 20.8384 29.1827 20.8925 28.9628 20.6938L28.6089 20.3304L26.9861 21.1406L27.0637 21.6427C27.0908 21.9379 26.8203 22.2072 26.4558 22.246C26.0948 22.2907 25.762 22.0896 25.7291 21.798L25.3292 17.7316C25.2904 17.3977 25.4762 17.0343 25.8561 16.845ZM19.0851 35.8408C19.4767 36.0324 19.4191 36.5498 19.2756 36.7592C19.1063 37.0049 18.7723 37.2319 18.4207 37.012C17.988 36.7415 17.3765 36.2841 17.3765 36.2841C17.3765 36.2841 17.4624 37.3577 17.4718 37.4741C17.4953 37.761 17.2601 38.1079 16.8074 38.1079C16.3535 38.1079 16.1195 37.761 16.143 37.4741C16.1524 37.3577 16.2382 36.2841 16.2382 36.2841C16.2382 36.2841 15.6268 36.7415 15.194 37.012C14.8424 37.2319 14.5085 37.0037 14.3391 36.7592C14.1945 36.5498 14.138 36.0336 14.5296 35.8408C14.6402 35.7867 15.1728 35.4939 15.7244 35.2552C15.1728 35.0164 14.639 34.7236 14.5296 34.6695C14.138 34.4779 14.1957 33.9605 14.3391 33.7512C14.5085 33.5054 14.8424 33.2784 15.194 33.4983C15.6268 33.7688 16.2382 34.2262 16.2382 34.2262C16.2382 34.2262 16.1524 33.1526 16.143 33.0362C16.1195 32.7493 16.3546 32.4024 16.8074 32.4024C17.2613 32.4024 17.4953 32.7493 17.4718 33.0362C17.4624 33.1526 17.3765 34.2262 17.3765 34.2262C17.3765 34.2262 17.988 33.7688 18.4207 33.4983C18.7723 33.2784 19.1063 33.5054 19.2756 33.7512C19.4203 33.9605 19.4767 34.4767 19.0851 34.6695C18.9746 34.7236 18.4419 35.0164 17.8904 35.2552C18.4407 35.4939 18.9746 35.7867 19.0851 35.8408ZM20.4821 20.7714L21.6557 19.6754C22.4318 18.9511 23.5783 18.9475 24.298 19.7189C25.0176 20.4903 24.9353 21.6333 24.1604 22.3577L23.4878 22.9856L24.0886 23.6289C24.2944 23.8499 24.2345 24.238 23.9593 24.4943C23.6841 24.7507 23.2926 24.7848 23.0868 24.5637L20.3528 21.6369C20.147 21.4158 20.2069 21.0277 20.4821 20.7714ZM35 22.3107C42.0084 22.3107 47.6893 27.9915 47.6893 35C47.6893 42.0084 42.0084 47.6893 35 47.6893C27.9915 47.6893 22.3107 42.0084 22.3107 35C22.3095 27.9915 27.9915 22.3107 35 22.3107ZM26.718 53.7182C26.397 53.5207 26.2606 53.1526 26.4181 52.8951L27.6705 50.856L27.654 50.8302L26.5216 51.1841C26.3405 51.2464 26.1148 51.2182 25.9078 51.0912C25.7008 50.9642 25.5727 50.7749 25.548 50.5856L25.3516 49.4155L25.321 49.4132L24.0687 51.4522C23.9099 51.7098 23.5207 51.7544 23.1997 51.5569C22.8786 51.3593 22.7422 50.9913 22.901 50.7337L24.9694 47.3659C25.1599 47.0567 25.6197 47.0002 26.0042 47.2354C26.25 47.3871 26.4017 47.6293 26.4323 47.861L26.7709 49.686L28.5524 49.1627C28.7735 49.0851 29.0581 49.111 29.3038 49.2615C29.6872 49.4979 29.8459 49.9341 29.6554 50.2434L27.5858 53.6112C27.4294 53.8711 27.039 53.9158 26.718 53.7182ZM32.9233 55.4762C32.5611 55.528 32.2319 55.3328 32.186 55.04L32.1378 54.5343L30.3645 54.1486L30.1105 54.5884C29.9471 54.8353 29.5661 54.8765 29.258 54.6778C28.9487 54.4873 28.8147 54.1204 28.9722 53.8723L31.2088 50.4515C31.3876 50.167 31.7603 50 32.1743 50.0905C32.5882 50.1811 32.8586 50.4868 32.9033 50.8196L33.5171 54.8612C33.5583 55.1528 33.2843 55.4304 32.9233 55.4762ZM38.6465 54.5155C38.8311 54.7601 38.6536 55.1481 38.3208 55.3245C37.9892 55.508 37.6199 55.4233 37.4482 55.1717L36.7168 54.0733L36.0724 54.1145L36.1289 54.9929C36.1489 55.2951 35.8549 55.5562 35.4798 55.5809C35.1046 55.6056 34.7801 55.3833 34.7601 55.0811L34.5026 51.083C34.4826 50.7808 34.7766 50.5197 35.1517 50.495L36.7544 50.3916C37.8139 50.3234 38.7029 51.0465 38.7711 52.1002C38.8147 52.7775 38.4642 53.2984 38.0033 53.6653L38.6465 54.5155ZM41.3958 54.5602C40.9313 54.7377 40.2246 54.7707 39.8354 54.3932C39.3497 53.9311 39.8495 52.9997 40.5233 53.2749C40.6185 53.3172 40.7996 53.3784 40.9442 53.3231C41.1771 53.2349 41.237 53.0174 41.1583 52.8092L40.1082 50.0599C40 49.7777 40.2034 49.4414 40.5538 49.3074C40.9054 49.1733 41.2806 49.2885 41.3887 49.5719L42.4388 52.3212C42.8281 53.3372 42.306 54.2133 41.3958 54.5602ZM47.7093 51.1324C47.4964 51.4299 47.1284 51.5322 46.885 51.364L46.4863 51.0489L44.9812 52.0625L45.1234 52.5505C45.1881 52.8398 44.9541 53.142 44.599 53.2279C44.2474 53.3196 43.8899 53.162 43.8205 52.8774L42.8974 48.897C42.8163 48.5712 42.9539 48.1867 43.3055 47.9504C43.6571 47.714 44.0651 47.7305 44.3368 47.9292L47.6787 50.281C47.9139 50.4515 47.9257 50.8408 47.7093 51.1324ZM48.8393 21.9014C48.737 21.6157 48.5548 21.357 48.2584 21.083C48.0562 20.9148 47.8351 20.8478 47.6658 21.0219C47.1531 21.5275 49.3709 22.8022 48.0127 24.2756C47.2977 25.0517 46.2488 24.7813 45.4186 24.0157C45.007 23.5995 44.6625 23.0997 44.4908 22.6129C44.2756 21.8838 45.3422 21.5604 45.6361 22.2425C45.7337 22.5341 45.9807 22.8704 46.2253 23.1409C46.4722 23.369 46.785 23.5654 46.999 23.3419C47.4776 22.8422 45.3163 21.4076 46.5875 20.0282C47.1837 19.3803 48.2726 19.4791 49.0639 20.2069C49.5037 20.6126 49.7777 21.0289 49.9694 21.5357C50.1869 22.1848 49.0886 22.5435 48.8393 21.9014ZM55.6632 36.7592C55.4939 37.0049 55.1599 37.2319 54.8083 37.012C54.3756 36.7415 53.7641 36.2841 53.7641 36.2841C53.7641 36.2841 53.8499 37.3577 53.8593 37.4741C53.8829 37.761 53.6477 38.1079 53.1949 38.1079C52.741 38.1079 52.507 37.761 52.5305 37.4741C52.54 37.3577 52.6258 36.2841 52.6258 36.2841C52.6258 36.2841 52.0143 36.7415 51.5816 37.012C51.23 37.2319 50.896 37.0037 50.7267 36.7592C50.5821 36.5498 50.5256 36.0336 50.9172 35.8408C51.0277 35.7867 51.5604 35.4939 52.1119 35.2552C51.5604 35.0164 51.0265 34.7236 50.9172 34.6695C50.5256 34.4779 50.5832 33.9605 50.7267 33.7512C50.896 33.5054 51.23 33.2784 51.5816 33.4983C52.0143 33.7688 52.6258 34.2262 52.6258 34.2262C52.6258 34.2262 52.54 33.1526 52.5305 33.0362C52.507 32.7493 52.7422 32.4024 53.1949 32.4024C53.6488 32.4024 53.8829 32.7493 53.8593 33.0362C53.8499 33.1526 53.7641 34.2262 53.7641 34.2262C53.7641 34.2262 54.3756 33.7688 54.8083 33.4983C55.1599 33.2784 55.4927 33.5054 55.6632 33.7512C55.8078 33.9605 55.8643 34.4767 55.4727 34.6695C55.3622 34.7236 54.8295 35.0164 54.278 35.2552C54.8295 35.4939 55.3633 35.7867 55.4727 35.8408C55.8643 36.0324 55.8078 36.5498 55.6632 36.7592Z" fill="#E51D2A"/>
<path d="M44.1945 49.2945L44.6449 50.8784L45.515 50.2928L44.2157 49.2792L44.1945 49.2945Z" fill="#E51D2A"/>
<path d="M27.7446 19.4555L26.5875 18.282L26.564 18.2937L26.8062 19.9236L27.7446 19.4555Z" fill="#E51D2A"/>
<path d="M23.2479 20.6997C23.0785 20.5174 22.6928 20.3998 22.4659 20.6115L21.8274 21.2077L22.6434 22.0826L23.282 21.4864C23.5089 21.2747 23.4172 20.8819 23.2479 20.6997Z" fill="#E51D2A"/>
</svg>
